<?xml version="1.0" standalone="no"?>
<!DOCTYPE svg PUBLIC "-//W3C//DTD SVG 1.1//EN" 
"http://www.w3.org/Graphics/SVG/1.1/DTD/svg11.dtd">
<svg width="600" height="350"><g transform="translate(0, 20)"><path class="link" d="M225,0C225,50 150,50 150,100"></path><path class="link" d="M225,0C225,50 300,50 300,100"></path><path class="link" d="M300,100C300,150 75,150 75,200"></path><path class="link" d="M300,100C300,150 225,150 225,200"></path><path class="link" d="M300,100C300,150 525,150 525,200"></path><path class="link" d="M225,200C225,250 225,250 225,300"></path><path class="link" d="M525,200C525,250 525,250 525,300"></path><g transform="translate(225,0)"><circle r="10" class="node"></circle><text dx="-12" dy="6" text-anchor="end" class="node-name">html</text></g><g transform="translate(150,100)"><circle r="10" class="node"></circle><text dx="12" dy="6" text-anchor="start" class="node-name">head</text></g><g transform="translate(300,100)"><circle r="10" class="node"></circle><text dx="-12" dy="6" text-anchor="end" class="node-name">body</text></g><g transform="translate(75,200)"><circle r="10" class="node"></circle><text dx="12" dy="6" text-anchor="start" class="node-name">h1</text></g><g transform="translate(225,200)"><circle r="10" class="node"></circle><text dx="-12" dy="6" text-anchor="end" class="node-name">p</text></g><g transform="translate(225,300)"><circle r="10" class="node"></circle><text dx="12" dy="6" text-anchor="start" class="node-name">text</text></g><g transform="translate(525,200)"><circle r="10" class="node"></circle><text dx="-12" dy="6" text-anchor="end" class="node-name">div</text></g><g transform="translate(525,300)"><circle r="10" class="node"></circle><text dx="12" dy="6" text-anchor="start" class="node-name">img</text></g></g></svg>